<svg id="Layer_1" data-name="Layer 1" xmlns="http://www.w3.org/2000/svg" width="160" height="38.23" viewBox="0 0 160 38.23"><defs><style>.cls-1{fill:#c00;}</style></defs><title>redgate-logo</title><polygon class="cls-1" points="21.81 17.37 11.08 17.1 14.81 21.04 21.81 20.86 21.81 17.37"/><polygon class="cls-1" points="20.17 26.72 21.81 26.53 21.81 23.18 17.08 23.44 20.17 26.72"/><polygon class="cls-1" points="0 28.82 17.39 27 14.04 23.63 0 24.44 0 28.82"/><polygon class="cls-1" points="7.51 17.01 0 16.82 0 21.41 11.57 21.13 7.51 17.01"/><polygon class="cls-1" points="8.41 14.28 21.81 15.05 21.81 11.68 4.21 9.84 8.41 14.28"/><polygon class="cls-1" points="0 9.41 0 13.79 4.59 14.05 0 9.41"/><path class="cls-1" d="M22.75,29a1.34,1.34,0,0,0,.92-1.41v-17a1.34,1.34,0,0,0-.92-1.41L0,6V3.12C2.58,1.28,8,0,14.34,0S26.1,1.28,28.67,3.12v32c-2.58,1.84-8,3.12-14.34,3.12S2.58,37,0,35.11V32.25L22.75,29"/><path d="M39.51,25.23V21.35c0-2.86.08-7.41,1.32-10.27a17.13,17.13,0,0,1,9.93-1.77A5.28,5.28,0,0,1,50.08,13a9.78,9.78,0,0,0-5.53.71,27.57,27.57,0,0,0-.75,7.26v7.94a11.15,11.15,0,0,1-3.88,0A10.9,10.9,0,0,1,39.51,25.23Z"/><path d="M61.79,21.54a37.52,37.52,0,0,1-6-.41v1.66c0,2.94,2.86,3.09,5.27,3.09a19.93,19.93,0,0,0,6.06-1,3.5,3.5,0,0,1,.71,2.75,15.18,15.18,0,0,1-7.53,1.88c-4.67,0-8.81-1.13-8.81-6.62V20.34a26.73,26.73,0,0,1,1.62-9.22,15.41,15.41,0,0,1,7.22-2c4.89,0,8.39,1.51,8.39,6.62a18.33,18.33,0,0,1-.9,5.38A54.78,54.78,0,0,1,61.79,21.54Zm-1.47-8.77a8,8,0,0,0-3.73,1,17,17,0,0,0-.71,4.1,16.26,16.26,0,0,0,4.52.45A18.4,18.4,0,0,0,64.31,18a7,7,0,0,0,.3-2.14C64.61,13.26,62.5,12.78,60.32,12.78Z"/><path d="M153,21.54a37.52,37.52,0,0,1-6-.41v1.66c0,2.94,2.86,3.09,5.27,3.09a19.93,19.93,0,0,0,6.06-1,3.5,3.5,0,0,1,.71,2.75,15.18,15.18,0,0,1-7.53,1.88c-4.67,0-8.81-1.13-8.81-6.62V20.34a26.73,26.73,0,0,1,1.62-9.22,15.41,15.41,0,0,1,7.22-2c4.89,0,8.39,1.51,8.39,6.62a18.33,18.33,0,0,1-.9,5.38A54.78,54.78,0,0,1,153,21.54Zm-1.47-8.77a8,8,0,0,0-3.73,1,17,17,0,0,0-.71,4.1,16.26,16.26,0,0,0,4.52.45,18.4,18.4,0,0,0,3.91-.34,7,7,0,0,0,.3-2.14C155.86,13.26,153.75,12.78,151.57,12.78Z"/><path d="M141.11,26.13c-.79.08-1.07.09-1.34.09-2.18,0-4.44-.13-4.44-3.16V13.6h4.89a6,6,0,0,0,0-3.65h-4.89V5.14a7,7,0,0,0-3.84,0,25.43,25.43,0,0,0-.41,5.57V23.31c0,5,3.73,6.1,5.87,6.15a10.36,10.36,0,0,0,4.68-.79,3.13,3.13,0,0,0,0-1.35A1.78,1.78,0,0,0,141.11,26.13Z"/><path d="M99.77,9.09a16.78,16.78,0,0,0-7.41,2C91.16,13.9,91,18.42,91,21.28V22.9c0,5.49,4,6.62,8.54,6.62a10.28,10.28,0,0,0,4.55-1.09,17.27,17.27,0,0,1-.56,4.44,9.87,9.87,0,0,1-4.1.83,16.17,16.17,0,0,1-6.4-1.17,6.76,6.76,0,0,0-1.35,3.24,17.42,17.42,0,0,0,7.79,1.58,14.37,14.37,0,0,0,7.75-2,35.09,35.09,0,0,0,1.2-9.33V15.71C108.47,10.37,104.63,9.09,99.77,9.09Zm4.44,15.67a9.65,9.65,0,0,1-8.84,0v-11a9.65,9.65,0,0,1,8.84,0Z"/><path d="M119.79,9.09a16.78,16.78,0,0,0-7.41,2c-1.2,2.86-1.32,7.38-1.32,10.24v1.47c0,5.46,4.63,6.55,7.07,6.55A9,9,0,0,0,124.42,27l.34,1.84a7,7,0,0,0,3.42,0,45.1,45.1,0,0,0,.3-5.23V15.71C128.49,10.37,124.65,9.09,119.79,9.09Zm4.4,14.75a7.48,7.48,0,0,1-4.42,1.66,7.71,7.71,0,0,1-4.42-1.07V13.79a9.65,9.65,0,0,1,8.84,0Z"/><path d="M88,1.11a9,9,0,0,0-3.88,0v9a7.43,7.43,0,0,0-4.4-1.05,16.51,16.51,0,0,0-7.38,2c-1.05,2.48-1.28,6.4-1.32,9.07V22.9c0,5.49,4,6.62,8.69,6.62a13.79,13.79,0,0,0,7.45-2c1.2-3,1.24-8.73,1.24-9.93V5.4A15.1,15.1,0,0,0,88,1.11ZM84.27,24.76a7.71,7.71,0,0,1-4.42,1.07,7.67,7.67,0,0,1-4.42-1.07v-11a7.71,7.71,0,0,1,4.42-1.07,7.67,7.67,0,0,1,4.42,1.07Z"/></svg>