<svg id="Layer_1" data-name="Layer 1" xmlns="http://www.w3.org/2000/svg" viewBox="0 0 1524 366"><defs><style>.cls-1{fill:#2e8fad;}.cls-2{fill:#005c89;}</style></defs><title>Artboard 1</title><path class="cls-1" d="M1435.15,201.44l-32.75,85-37.1-85h-16.77l46.37,101.61q-4.55,10.84-9.27,15a17.07,17.07,0,0,1-11.64,4.14,36.82,36.82,0,0,1-8.59-.89,32.55,32.55,0,0,1-7.4-2.86l-5.13,12a50.24,50.24,0,0,0,10.27,3.84,46.87,46.87,0,0,0,11.44,1.29q11.43,0,19.43-6.52t14.5-22.29l42.82-105.36Z"/><polygon class="cls-2" points="487.75 219.99 431.71 219.99 431.71 165.33 401.33 165.33 401.33 303.44 431.71 303.44 431.71 248 487.75 248 487.75 303.44 518.13 303.44 518.13 165.33 487.75 165.33 487.75 219.99"/><path class="cls-2" d="M651.61,238.63q8.19-10.56,8.19-27.33v-.39q0-21.51-13.72-33.54t-38.37-12H544.57V303.44H575V259.25h23.87l29.6,44.19h35.51L630.2,254.12A47.47,47.47,0,0,0,651.61,238.63ZM629,212.88q0,8.88-6,14.21t-17.26,5.33H575V192.76h30.18q11.25,0,17.56,4.93t6.32,14.8Z"/><path class="cls-1" d="M831.94,177.07a48.72,48.72,0,0,0-16.37-8.68,69.48,69.48,0,0,0-21.21-3.06h-51.7V303.44h15.59V254.71h33.54a74.6,74.6,0,0,0,20.91-2.86A51.13,51.13,0,0,0,830,243.27a41.89,41.89,0,0,0,11.74-14.21,42.77,42.77,0,0,0,4.34-19.73,44.91,44.91,0,0,0-3.65-18.45A37.55,37.55,0,0,0,831.94,177.07Zm-4.15,45.38a27.27,27.27,0,0,1-7.72,9.67A35.85,35.85,0,0,1,808,238.33a52.39,52.39,0,0,1-15.54,2.18H758.25V179.73h35q16.82,0,27,7.6t10.19,22.59A28.83,28.83,0,0,1,827.79,222.45Z"/><path class="cls-1" d="M898,207.26a46.18,46.18,0,0,0-9.47,9.17,54.67,54.67,0,0,0-6.91,11.65V201.44H866.41v102H881.6V262.8a59.45,59.45,0,0,1,3.16-20.22,42,42,0,0,1,8.68-14.7A35.41,35.41,0,0,1,906.37,219a41.88,41.88,0,0,1,15.68-3h1.18V199.66a41.79,41.79,0,0,0-13.61,1.78A40.21,40.21,0,0,0,898,207.26Z"/><path class="cls-1" d="M1023.05,215a53.15,53.15,0,0,0-16.87-11.44,52.82,52.82,0,0,0-70.54,28.61,54.55,54.55,0,0,0-3.94,20.62,53.82,53.82,0,0,0,3.94,20.52,51.55,51.55,0,0,0,11.05,16.87,53.61,53.61,0,0,0,16.77,11.44,52,52,0,0,0,21.12,4.24,53.29,53.29,0,0,0,21.3-4.24,52,52,0,0,0,17-11.54,54.63,54.63,0,0,0,11.25-58.21A51.49,51.49,0,0,0,1023.05,215Zm-3.35,53.14a38.63,38.63,0,0,1-7.7,12.5,35.47,35.47,0,0,1-11.84,8.36A37.07,37.07,0,0,1,985,292a35.67,35.67,0,0,1-15-3.15A37.85,37.85,0,0,1,958,280.39a38.37,38.37,0,0,1-7.89-12.6,42,42,0,0,1-2.87-15.55,42.49,42.49,0,0,1,2.77-15.44,40.6,40.6,0,0,1,7.59-12.6,33.9,33.9,0,0,1,11.74-8.46,37.12,37.12,0,0,1,15.2-3.06,35.68,35.68,0,0,1,15,3.16,38.2,38.2,0,0,1,12,8.56,39.09,39.09,0,0,1,8,12.69,42.28,42.28,0,0,1,2.86,15.55A42.72,42.72,0,0,1,1019.7,268.09Z"/><path class="cls-1" d="M1143.58,221a62.44,62.44,0,0,0-6.8-8.29,46.35,46.35,0,0,0-8.59-6.9,44,44,0,0,0-10.65-4.74,45.35,45.35,0,0,0-13-1.77,46,46,0,0,0-18,3.65A49.34,49.34,0,0,0,1071,213.37a50.78,50.78,0,0,0-11,16.68,63.16,63.16,0,0,0,0,45,50.78,50.78,0,0,0,11,16.68,47.9,47.9,0,0,0,15.59,10.35,47,47,0,0,0,18,3.56,44.3,44.3,0,0,0,12.92-1.78,40,40,0,0,0,10.56-4.93,48.32,48.32,0,0,0,8.58-7.3,80.57,80.57,0,0,0,7-8.68v20.51h15.2v-144h-15.2Zm-2.46,47.57a37.19,37.19,0,0,1-8.29,12.47A38.89,38.89,0,0,1,1121,289a34.3,34.3,0,0,1-13.71,2.84,35.16,35.16,0,0,1-13.81-2.74,33.79,33.79,0,0,1-11.45-7.95,38.17,38.17,0,0,1-7.79-12.47,44.11,44.11,0,0,1-2.86-16.3,45.46,45.46,0,0,1,2.86-16.59,36.55,36.55,0,0,1,7.69-12.36,32.87,32.87,0,0,1,11.35-7.66,36.74,36.74,0,0,1,14-2.65,34.31,34.31,0,0,1,13.71,2.85,38.71,38.71,0,0,1,11.84,7.95,37.25,37.25,0,0,1,8.29,12.37,41.19,41.19,0,0,1,3.05,16.09A42,42,0,0,1,1141.12,268.54Z"/><rect class="cls-1" x="1188.88" y="201.44" width="15.19" height="102.01"/><rect class="cls-1" x="1187.89" y="162.37" width="17.36" height="16.77"/><path class="cls-1" d="M1315.27,219.79a66.23,66.23,0,0,0-7.1-7.89,45.8,45.8,0,0,0-8.78-6.52,47.77,47.77,0,0,0-10.85-4.44,50.21,50.21,0,0,0-30.88,1.68,47.81,47.81,0,0,0-15.39,9.57,46.3,46.3,0,0,0-10.75,15.19,48.69,48.69,0,0,0-4,20.23,48,48,0,0,0,4,20.12,46.23,46.23,0,0,0,26,24.57,49.92,49.92,0,0,0,17.86,3.25q14,0,23.67-6.31a64.46,64.46,0,0,0,16.38-15.19v12q0,18-10.06,27.13t-27,9.18a62.65,62.65,0,0,1-20.72-3.36,73.59,73.59,0,0,1-18.55-9.67l-6.9,11.84a78.26,78.26,0,0,0,21.9,10.66,83.26,83.26,0,0,0,24.46,3.55,68.21,68.21,0,0,0,21.41-3.16,44.7,44.7,0,0,0,16.38-9.37,40.91,40.91,0,0,0,10.45-15.49,58.93,58.93,0,0,0,3.65-21.7V201.44h-15.19Zm-2.56,41.93a34.63,34.63,0,0,1-8.39,10.94,38,38,0,0,1-11.94,7,40.12,40.12,0,0,1-14,2.47,37.19,37.19,0,0,1-13.52-2.47,33.35,33.35,0,0,1-11.25-7.1,34.4,34.4,0,0,1-10.55-25.36,35.83,35.83,0,0,1,2.76-14.3,32.37,32.37,0,0,1,7.6-10.95,32.84,32.84,0,0,1,11.24-6.91,39.29,39.29,0,0,1,13.72-2.37,40.35,40.35,0,0,1,14,2.47,38.21,38.21,0,0,1,11.94,7,34.56,34.56,0,0,1,8.39,11,34.06,34.06,0,0,1,0,28.61Z"/><circle class="cls-1" cx="196.78" cy="62.17" r="14.2"/><circle class="cls-1" cx="83.18" cy="62.17" r="14.2" transform="matrix(0.97, -0.26, 0.26, 0.97, -13.22, 23.56)"/><circle class="cls-1" cx="83.18" cy="289.37" r="14.2" transform="translate(-159.61 111.3) rotate(-37.71)"/><circle class="cls-1" cx="196.78" cy="289.37" r="14.2"/><circle class="cls-1" cx="196.78" cy="175.77" r="14.2"/><path class="cls-1" d="M311.05,261a28.18,28.18,0,0,0-10.27,1.66,7.14,7.14,0,0,1-7.5-1.63l-57.35-57.35a7,7,0,0,1-1.32-8.2,42.71,42.71,0,0,0-.28-39.91,7.11,7.11,0,0,1,1.18-8.44L292.42,90.2a7.16,7.16,0,0,1,7.68-1.56,28.39,28.39,0,1,0-16.19-16.19,7.15,7.15,0,0,1-1.56,7.68L225.44,137a7.13,7.13,0,0,1-8.44,1.19,42.64,42.64,0,0,0-61.07,25.3,7.12,7.12,0,0,1-6.8,5.12H115.7a7.08,7.08,0,0,1-6.48-4.24,28.4,28.4,0,1,0,0,22.79,7.13,7.13,0,0,1,6.52-4.31h33.42a7.11,7.11,0,0,1,6.8,5.12A42.66,42.66,0,0,0,217.67,213a7.12,7.12,0,0,1,8.54,1.13l56.49,56.49a7.15,7.15,0,0,1,1.48,7.85A28.13,28.13,0,0,0,282,290.05,28.4,28.4,0,1,0,311.05,261Zm-.67-213a14.2,14.2,0,1,1-14.2,14.2A14.19,14.19,0,0,1,310.38,48ZM83.18,190a14.2,14.2,0,1,1,14.2-14.2A14.2,14.2,0,0,1,83.18,190Zm113.6,14.2a28.4,28.4,0,1,1,28.4-28.4A28.41,28.41,0,0,1,196.78,204.17Zm113.6,99.4a14.2,14.2,0,1,1,14.2-14.2A14.2,14.2,0,0,1,310.38,303.57Z"/><circle class="cls-1" cx="310.38" cy="175.77" r="14.2"/></svg>