<svg id="base_nero" xmlns="http://www.w3.org/2000/svg" viewBox="0 0 425.4 287.21"><defs><style>.cls-1{fill:#47588b;}.cls-2{fill:#fff;}.cls-3{fill:#35384d;}.cls-4{fill:#3a54a0;}.cls-5{fill:#f6ac3a;}.cls-6{fill:#c0282d;}</style></defs><g id="PAYOFF"><path class="cls-1" d="M33.26,287.21H392.14V240.26H33.26Z"/><path class="cls-2" d="M67,264.16a9.55,9.55,0,0,1-.67,3.75,6.85,6.85,0,0,1-1.9,2.64,7.85,7.85,0,0,1-2.93,1.56,12.62,12.62,0,0,1-3.74.52q-1,0-2.22-.09a12.63,12.63,0,0,1-2.2-.32V256.09a12.63,12.63,0,0,1,2.2-.32q1.21-.09,2.22-.09a13,13,0,0,1,3.74.52,7.85,7.85,0,0,1,2.93,1.56,7,7,0,0,1,1.9,2.64A9.6,9.6,0,0,1,67,264.16Zm-9.05,6.43a5.82,5.82,0,0,0,6.58-6.43,5.84,5.84,0,0,0-6.58-6.44c-.66,0-1.16,0-1.52,0s-.61,0-.76.05v12.72l.76,0C56.74,270.58,57.24,270.59,57.9,270.59Z"/><path class="cls-2" d="M81.3,272.48c-.27-.72-.53-1.42-.77-2.12s-.48-1.4-.74-2.12H72.25l-1.51,4.24H68.32c.64-1.76,1.24-3.38,1.8-4.88s1.11-2.92,1.64-4.26,1.07-2.63,1.6-3.85,1.08-2.44,1.65-3.64h2.14c.58,1.2,1.13,2.41,1.66,3.64s1.06,2.51,1.59,3.85,1.08,2.76,1.65,4.26,1.16,3.12,1.8,4.88Zm-2.18-6.16c-.51-1.4-1-2.74-1.53-4.05s-1-2.55-1.57-3.75q-.84,1.8-1.59,3.75c-.51,1.31-1,2.65-1.5,4.05Z"/><path class="cls-2" d="M95.92,255.85v2H90.69v14.61H88.36V257.87H83.13v-2Z"/><path class="cls-2" d="M108.18,272.48c-.27-.72-.53-1.42-.77-2.12s-.48-1.4-.74-2.12H99.13l-1.51,4.24H95.2c.64-1.76,1.24-3.38,1.8-4.88s1.11-2.92,1.64-4.26,1.07-2.63,1.6-3.85,1.08-2.44,1.65-3.64H104c.58,1.2,1.13,2.41,1.66,3.64s1.06,2.51,1.59,3.85,1.08,2.76,1.65,4.26,1.16,3.12,1.8,4.88ZM106,266.32c-.52-1.4-1-2.74-1.53-4.05s-1-2.55-1.57-3.75q-.84,1.8-1.59,3.75c-.51,1.31-1,2.65-1.5,4.05Z"/><path class="cls-2" d="M131.32,255.85c-.5.55-1.06,1.15-1.68,1.81s-1.28,1.35-2,2-1.35,1.38-2,2.06l-1.89,1.87a21.8,21.8,0,0,1,2.18,1.77c.77.71,1.52,1.46,2.26,2.26s1.43,1.62,2.07,2.45a20.1,20.1,0,0,1,1.62,2.37h-2.73a22.8,22.8,0,0,0-1.66-2.26,29.2,29.2,0,0,0-2-2.19c-.69-.69-1.4-1.34-2.11-1.93a17.2,17.2,0,0,0-2.08-1.51v7.89H119V255.85h2.32v7.35c.56-.53,1.18-1.13,1.85-1.79s1.34-1.33,2-2,1.28-1.31,1.86-1.93,1.08-1.15,1.48-1.62Z"/><path class="cls-2" d="M145.74,272.48c-.35-.59-.75-1.25-1.21-2s-.95-1.5-1.48-2.29-1.07-1.6-1.64-2.41-1.13-1.61-1.69-2.37-1.11-1.47-1.63-2.14-1-1.27-1.47-1.78v13h-2.28V255.85h1.85c.75.8,1.56,1.73,2.41,2.8s1.71,2.16,2.55,3.29,1.63,2.23,2.37,3.32,1.37,2.06,1.89,2.9V255.85h2.28v16.63Z"/><path class="cls-2" d="M151.38,264.16a10.2,10.2,0,0,1,.64-3.77,7.86,7.86,0,0,1,1.72-2.73,7.3,7.3,0,0,1,2.55-1.64,8.54,8.54,0,0,1,3.08-.55,8.32,8.32,0,0,1,3,.55,7.23,7.23,0,0,1,2.51,1.64,7.84,7.84,0,0,1,1.71,2.73,11.39,11.39,0,0,1,0,7.53,7.84,7.84,0,0,1-1.71,2.73,7.09,7.09,0,0,1-2.51,1.64,8.32,8.32,0,0,1-3,.55,8.54,8.54,0,0,1-3.08-.55,7.16,7.16,0,0,1-2.55-1.64,7.86,7.86,0,0,1-1.72-2.73A10.15,10.15,0,0,1,151.38,264.16Zm2.45,0a9.4,9.4,0,0,0,.38,2.74,6,6,0,0,0,1.1,2.1,4.8,4.8,0,0,0,1.72,1.34,5.93,5.93,0,0,0,4.58,0,4.86,4.86,0,0,0,1.71-1.34,6,6,0,0,0,1.09-2.1,9.86,9.86,0,0,0,0-5.49,6,6,0,0,0-1.09-2.1,4.72,4.72,0,0,0-1.71-1.33,5.81,5.81,0,0,0-4.58,0,4.67,4.67,0,0,0-1.72,1.33,6,6,0,0,0-1.1,2.1A9.42,9.42,0,0,0,153.83,264.16Z"/><path class="cls-2" d="M179.68,261.2c-.67,2.15-1.36,4.13-2,6s-1.38,3.6-2.07,5.32h-2.33c-.84-2.44-1.59-5-2.24-7.75s-1.25-5.68-1.81-8.88h2.45q.33,1.88.69,3.75c.24,1.24.49,2.46.75,3.63s.51,2.3.77,3.37.51,2.07.79,3q1-2.52,2-5.53t2-6.23h2q.93,3.21,2,6.23t2.06,5.53c.26-.9.51-1.88.77-2.95s.51-2.2.76-3.37.49-2.4.73-3.65.47-2.51.7-3.76h2.37c-.57,3.2-1.19,6.16-1.83,8.88s-1.39,5.31-2.22,7.75h-2.33c-.71-1.72-1.4-3.5-2.07-5.32S180.35,263.35,179.68,261.2Z"/><path class="cls-2" d="M203.13,270.47v2h-10V255.85h2.32v14.62Z"/><path class="cls-2" d="M205.81,272.48V255.85H216v2h-7.83v5h7v1.94h-7v5.76h8.43v2Z"/><path class="cls-2" d="M233.41,264.16a9.55,9.55,0,0,1-.67,3.75,6.93,6.93,0,0,1-1.89,2.64,8,8,0,0,1-2.93,1.56,12.73,12.73,0,0,1-3.75.52q-1,0-2.22-.09a12.51,12.51,0,0,1-2.19-.32V256.09a12.51,12.51,0,0,1,2.19-.32q1.22-.09,2.22-.09a13.07,13.07,0,0,1,3.75.52,8,8,0,0,1,2.93,1.56,7.09,7.09,0,0,1,1.89,2.64A9.6,9.6,0,0,1,233.41,264.16Zm-9,6.43a6.62,6.62,0,0,0,4.95-1.69,6.46,6.46,0,0,0-4.95-11.18c-.65,0-1.16,0-1.52,0s-.61,0-.76.05v12.72l.76,0C223.2,270.58,223.71,270.59,224.36,270.59Z"/><path class="cls-2" d="M247.26,264.3h2.33v7.78c-.19.06-.47.13-.83.21s-.78.16-1.25.24-1,.15-1.54.21-1.13.08-1.71.08a8.39,8.39,0,0,1-3.19-.58,6.7,6.7,0,0,1-2.47-1.68,7.58,7.58,0,0,1-1.6-2.71,11.27,11.27,0,0,1-.56-3.69,10.16,10.16,0,0,1,.63-3.71,8.21,8.21,0,0,1,1.72-2.73,7.37,7.37,0,0,1,2.53-1.68,8.46,8.46,0,0,1,3.11-.57,13.15,13.15,0,0,1,2,.14,11.36,11.36,0,0,1,1.5.34,7,7,0,0,1,1,.38,5,5,0,0,1,.54.29l-.74,1.94a6.34,6.34,0,0,0-1.85-.75,9.29,9.29,0,0,0-2.35-.3,5.82,5.82,0,0,0-2.32.45,4.93,4.93,0,0,0-1.77,1.32,6.23,6.23,0,0,0-1.14,2.1,8.92,8.92,0,0,0-.41,2.78,10,10,0,0,0,.35,2.71,5.92,5.92,0,0,0,1.05,2.1,4.88,4.88,0,0,0,1.76,1.35,5.8,5.8,0,0,0,2.46.48,11.92,11.92,0,0,0,1.71-.1,8.2,8.2,0,0,0,1-.21Z"/><path class="cls-2" d="M253.48,272.48V255.85h10.15v2h-7.82v5h7v1.94h-7v5.76h8.42v2Z"/><path class="cls-2" d="M284.32,272.48c-.28-.72-.53-1.42-.77-2.12s-.49-1.4-.74-2.12h-7.54l-1.51,4.24h-2.43c.64-1.76,1.24-3.38,1.8-4.88s1.11-2.92,1.65-4.26,1.07-2.63,1.59-3.85,1.08-2.44,1.66-3.64h2.14c.57,1.2,1.12,2.41,1.65,3.64s1.06,2.51,1.6,3.85,1.08,2.76,1.64,4.26,1.16,3.12,1.8,4.88Zm-2.19-6.16c-.51-1.4-1-2.74-1.52-4.05s-1-2.55-1.57-3.75c-.56,1.2-1.1,2.45-1.6,3.75s-1,2.65-1.5,4.05Z"/><path class="cls-2" d="M303,264.16a9.55,9.55,0,0,1-.67,3.75,6.93,6.93,0,0,1-1.89,2.64,8,8,0,0,1-2.93,1.56,12.73,12.73,0,0,1-3.75.52q-1,0-2.22-.09a12.51,12.51,0,0,1-2.19-.32V256.09a12.51,12.51,0,0,1,2.19-.32q1.21-.09,2.22-.09a13.07,13.07,0,0,1,3.75.52,8,8,0,0,1,2.93,1.56,7.09,7.09,0,0,1,1.89,2.64A9.6,9.6,0,0,1,303,264.16Zm-9,6.43a6.61,6.61,0,0,0,4.94-1.69A6.46,6.46,0,0,0,294,257.72q-1,0-1.53,0a7.29,7.29,0,0,0-.75.05v12.72l.75,0Q293,270.59,294,270.59Z"/><path class="cls-2" d="M319.74,255.85q-.92,2.64-1.74,4.89T316.38,265c-.53,1.34-1.05,2.62-1.57,3.85s-1.05,2.43-1.6,3.63H311c-.54-1.2-1.08-2.41-1.6-3.63s-1-2.51-1.58-3.85-1.08-2.77-1.64-4.26-1.14-3.13-1.73-4.89h2.57q1.29,3.79,2.54,7.3c.83,2.33,1.69,4.53,2.57,6.57.88-2,1.73-4.22,2.57-6.56s1.67-4.78,2.52-7.31Z"/><path class="cls-2" d="M322.29,255.85h2.32v16.63h-2.32Z"/><path class="cls-2" d="M332.85,270.83q3.64,0,3.64-2.5a2.47,2.47,0,0,0-.32-1.31,3.11,3.11,0,0,0-.88-.93,5.79,5.79,0,0,0-1.26-.69q-.7-.28-1.5-.57a16.71,16.71,0,0,1-1.72-.71,5.84,5.84,0,0,1-1.42-.94,3.89,3.89,0,0,1-.95-1.28,4.28,4.28,0,0,1-.35-1.8,4.18,4.18,0,0,1,1.49-3.41,6.31,6.31,0,0,1,4.11-1.22,11.08,11.08,0,0,1,2.74.32,6.34,6.34,0,0,1,1.82.71l-.75,1.9a6.21,6.21,0,0,0-1.5-.62,8,8,0,0,0-2.31-.3,4.92,4.92,0,0,0-1.25.15,3.08,3.08,0,0,0-1,.43,2.06,2.06,0,0,0-.68.73,2.1,2.1,0,0,0-.26,1,2.16,2.16,0,0,0,.27,1.12,2.47,2.47,0,0,0,.74.81,6.2,6.2,0,0,0,1.12.63c.42.2.89.39,1.4.58.72.29,1.38.58,2,.86a6.53,6.53,0,0,1,1.56,1,4.12,4.12,0,0,1,1,1.42,5.05,5.05,0,0,1,.36,2,3.94,3.94,0,0,1-1.59,3.36,7.53,7.53,0,0,1-4.5,1.17,11.45,11.45,0,0,1-1.82-.13,13.87,13.87,0,0,1-1.47-.31,9.67,9.67,0,0,1-1.12-.38l-.73-.35.7-1.92a9.34,9.34,0,0,0,1.68.69A8.49,8.49,0,0,0,332.85,270.83Z"/><path class="cls-2" d="M341.32,264.16a10.42,10.42,0,0,1,.63-3.77,7.88,7.88,0,0,1,1.73-2.73,7.3,7.3,0,0,1,2.55-1.64,8.5,8.5,0,0,1,3.08-.55,8.36,8.36,0,0,1,3,.55,7.19,7.19,0,0,1,2.5,1.64,7.86,7.86,0,0,1,1.72,2.73,11.39,11.39,0,0,1,0,7.53,7.86,7.86,0,0,1-1.72,2.73,7.06,7.06,0,0,1-2.5,1.64,8.36,8.36,0,0,1-3,.55,8.5,8.5,0,0,1-3.08-.55,7.16,7.16,0,0,1-2.55-1.64,7.88,7.88,0,0,1-1.73-2.73A10.36,10.36,0,0,1,341.32,264.16Zm2.45,0a9.08,9.08,0,0,0,.38,2.74,6,6,0,0,0,1.09,2.1,4.84,4.84,0,0,0,1.73,1.34,5.45,5.45,0,0,0,2.29.46,5.37,5.37,0,0,0,2.28-.46,4.89,4.89,0,0,0,1.72-1.34,6.14,6.14,0,0,0,1.09-2.1,10.1,10.1,0,0,0,0-5.49,6.14,6.14,0,0,0-1.09-2.1,4.75,4.75,0,0,0-1.72-1.33,5.22,5.22,0,0,0-2.28-.47A5.3,5.3,0,0,0,347,258a4.7,4.7,0,0,0-1.73,1.33,6,6,0,0,0-1.09,2.1A9.1,9.1,0,0,0,343.77,264.16Z"/><path class="cls-2" d="M369,265.52c.25.32.58.74,1,1.26s.8,1.1,1.21,1.73.83,1.29,1.24,2a20.19,20.19,0,0,1,1,2H371c-.32-.6-.67-1.22-1-1.84s-.75-1.22-1.14-1.79-.76-1.1-1.14-1.6-.71-.93-1-1.29l-.63,0h-2.75v6.5H360.9V256.09a12.63,12.63,0,0,1,2.2-.32c.8-.06,1.55-.09,2.22-.09a9.11,9.11,0,0,1,5.34,1.32,4.55,4.55,0,0,1,1.83,3.94,4.62,4.62,0,0,1-.87,2.83A5.15,5.15,0,0,1,369,265.52Zm-3.53-7.8c-1,0-1.75,0-2.28.08v6.26h1.66a17.54,17.54,0,0,0,2.16-.12,4.77,4.77,0,0,0,1.62-.46,2.44,2.44,0,0,0,1-.94,3.19,3.19,0,0,0,.36-1.62,3.05,3.05,0,0,0-.36-1.56,2.66,2.66,0,0,0-1-1,4,4,0,0,0-1.44-.5A9.86,9.86,0,0,0,365.51,257.72Z"/></g><g id="LOGO"><path class="cls-3" d="M387.85,217.33a8.64,8.64,0,0,0,2.29.71,17.05,17.05,0,0,0,2.82.26c3,0,5.38-.7,7-2a16.63,16.63,0,0,0,4.68-6.43c-3.44-6.53-6.7-13.49-9.71-20.89a211.59,211.59,0,0,1-7.49-22.39h8.3c.61,2.46,1.32,5.1,2.1,8s1.86,5.73,2.83,8.72,2.12,6.09,3.35,9.09,2.55,5.9,3.89,8.64c1-2.83,1.93-5.65,2.72-8.38s1.67-5.56,2.38-8.28,1.49-5.66,2.21-8.56,1.49-6.09,2.29-9.34h7.93c-1.93,8-4.14,15.69-6.61,23.18A202.81,202.81,0,0,1,411,210.46a35.69,35.69,0,0,1-3.44,6.35,19.28,19.28,0,0,1-3.87,4.41,13.88,13.88,0,0,1-4.76,2.55,20.9,20.9,0,0,1-6.09.8,22.36,22.36,0,0,1-3.88-.45,13.76,13.76,0,0,1-2.73-.8Zm-40.92-7.93V168.94a59,59,0,0,1,19-3.27c1.95,0,3.88.09,5.65.26a39.4,39.4,0,0,1,5.9.89l-1.41,6.7a24.75,24.75,0,0,0-5.29-1,40.58,40.58,0,0,0-4.85-.26,43.3,43.3,0,0,0-11.47,1.58v35.44h-7.49ZM325.59,188c0-4.86-1.06-8.64-3.16-11.47a10.07,10.07,0,0,0-8.47-4.22,9.88,9.88,0,0,0-8.37,4.22c-2,2.74-3,6.61-3,11.47s1,8.63,3,11.46a10,10,0,0,0,8.37,4.14,10.21,10.21,0,0,0,8.47-4.14C324.53,196.61,325.59,192.74,325.59,188Zm7.86,0a27,27,0,0,1-1.51,9.16,18.67,18.67,0,0,1-4,7,18.46,18.46,0,0,1-6.17,4.58,20,20,0,0,1-15.61,0,20.51,20.51,0,0,1-6.08-4.58,20.77,20.77,0,0,1-4.06-7,29.79,29.79,0,0,1-1.4-9.16,28.43,28.43,0,0,1,1.4-9.27,19.35,19.35,0,0,1,4.06-7,19,19,0,0,1,6.08-4.5,17.61,17.61,0,0,1,7.76-1.66,18,18,0,0,1,7.85,1.66,17.64,17.64,0,0,1,6.17,4.5,21.56,21.56,0,0,1,4,7A28.16,28.16,0,0,1,333.45,188Zm-66.13-21.34h18.07V173H267.32v19.93a27.43,27.43,0,0,0,.45,5.29,7.69,7.69,0,0,0,1.49,3.35,6.24,6.24,0,0,0,2.73,1.68,17.63,17.63,0,0,0,4.06.44,22.2,22.2,0,0,0,5.38-.53,20.25,20.25,0,0,0,3.87-1.5l1.15,6.44c-.87.35-2.21.88-4.14,1.49a21.69,21.69,0,0,1-6.88.89,21.91,21.91,0,0,1-7.85-1.15,10.05,10.05,0,0,1-4.76-3.35,13,13,0,0,1-2.29-5.47,39.73,39.73,0,0,1-.61-7.67V172.9h-9v-6.34h9v-12l7.57-1.33v13.41ZM203.4,188.07A24.86,24.86,0,0,1,205.25,178a18.64,18.64,0,0,1,5-7,20.81,20.81,0,0,1,7.5-4.06,31.86,31.86,0,0,1,9.26-1.4,48.21,48.21,0,0,1,6.18.43,32.22,32.22,0,0,1,6.6,1.5L238.05,174a25.68,25.68,0,0,0-5.64-1.41,32.71,32.71,0,0,0-5-.34,20.76,20.76,0,0,0-6.25.87,13.87,13.87,0,0,0-5.21,2.74,13.39,13.39,0,0,0-3.44,4.84,17.44,17.44,0,0,0-1.33,7.24,18.27,18.27,0,0,0,1.24,7,12.52,12.52,0,0,0,3.36,4.76,15,15,0,0,0,5.29,2.74,23,23,0,0,0,6.69.87c1.94,0,3.88-.08,5.65-.26a27.9,27.9,0,0,0,6-1.5l1.15,6.35a33.13,33.13,0,0,1-6.53,1.67,45.75,45.75,0,0,1-7.22.54,30,30,0,0,1-9.53-1.42,22.09,22.09,0,0,1-7.41-4.22,19.44,19.44,0,0,1-4.76-6.89A23.67,23.67,0,0,1,203.4,188.07Zm-27.77-22.48a23.16,23.16,0,0,1,8,1.23,14.26,14.26,0,0,1,5.38,3.35,12,12,0,0,1,2.82,5.19,26.18,26.18,0,0,1,.79,6.62v26.71c-1.76.27-4.14.71-7,1.15a59.77,59.77,0,0,1-8.9.62,34.66,34.66,0,0,1-6.79-.62,18.19,18.19,0,0,1-5.91-2,11.93,11.93,0,0,1-4.14-4.24,13,13,0,0,1-1.59-6.78,11.18,11.18,0,0,1,1.59-6.18,14.08,14.08,0,0,1,4.14-4.14,17.67,17.67,0,0,1,5.82-2.2,27.48,27.48,0,0,1,6.61-.71,41.22,41.22,0,0,1,8.81,1v-2.12a16.77,16.77,0,0,0-.43-3.71,8.55,8.55,0,0,0-1.59-3.35,6.89,6.89,0,0,0-3.18-2.29,12,12,0,0,0-5-.87,39.44,39.44,0,0,0-6.88.52,23.07,23.07,0,0,0-4.49,1.15l-.89-6.26a21.76,21.76,0,0,1,5.21-1.33A34.94,34.94,0,0,1,175.63,165.59Zm.7,38.34c1.94,0,3.62-.08,5-.17a30.2,30.2,0,0,0,3.79-.45V190.62a29.77,29.77,0,0,0-3.62-.71,32.68,32.68,0,0,0-4.32-.26,20.13,20.13,0,0,0-4.14.36,9.5,9.5,0,0,0-3.62,1.14,6.8,6.8,0,0,0-2.55,2.21,5,5,0,0,0-1,3.35c0,2.73.88,4.67,2.73,5.81A18.49,18.49,0,0,0,176.33,203.93Zm-61.19,5.47v-57H147.5v6.43H122.72v17.82h21.87V183H122.72V209.4"/><path class="cls-3" d="M58.63,161.7a4.14,4.14,0,0,1-3.08-1.15,4.09,4.09,0,0,1-1.32-3.26A3.83,3.83,0,0,1,55.55,154a4.28,4.28,0,0,1,3.08-1.15A4,4,0,0,1,61.71,154a4.66,4.66,0,0,1,0,6.52A4.17,4.17,0,0,1,58.63,161.7Z"/><path class="cls-3" d="M70.62,209.49a16.78,16.78,0,0,1-6.08-1,8.65,8.65,0,0,1-3.62-2.73A11.76,11.76,0,0,1,59.07,201a36.52,36.52,0,0,1-.62-7.31V172H46.11V169.2H62.42v24.59c0,4.67.7,7.85,2.12,9.71a8.15,8.15,0,0,0,6.61,2.81,19.89,19.89,0,0,0,5.37-.71c.62-.17,1.24-.35,1.77-.52l.53,2.91c-.1,0-.17.09-.27.09a21.57,21.57,0,0,1-2.2.7,19,19,0,0,1-2.82.62C72.65,209.4,71.67,209.49,70.62,209.49Z"/><path class="cls-3" d="M4.58,156.06v21.33c3.7,0,6-.17,6.53-.17a26.92,26.92,0,0,0,7.4-1.32c2.38-.8,5.12-1.94,6.71-4l.08-.09A8.5,8.5,0,0,0,27,166.46a10.27,10.27,0,0,0-4.85-8.82c-2.83-1.76-6.35-2.2-9.61-2.2h-1.6C10.66,155.44,7.41,155.62,4.58,156.06Zm.27,48.31c4.49,1.42,11.73,1.23,15.51.27a12.81,12.81,0,0,0,7.85-5.47A11.42,11.42,0,0,0,28,186.92c-3.53-4.86-10.76-5.29-16.14-5.56-2.29-.08-4.67-.18-7-.08ZM12.6,209c-.88,0-2,0-3.26-.09l-3.79-.27H5.47A52.38,52.38,0,0,1,0,207.9V153.14a38.53,38.53,0,0,1,5.28-.69c1.42-.09,2.65-.28,3.89-.28s2.38-.08,3.35-.08a45.06,45.06,0,0,1,7.93.71,17,17,0,0,1,6,2.29,10.1,10.1,0,0,1,3.8,4.14,14.25,14.25,0,0,1-1.51,14.46c-2.29,2.92-6.51,4.41-10,5.11,4.94.71,9.69,2.39,13.13,6.18a11.59,11.59,0,0,1,2.65,7.84c0,5.38-1.59,9.26-4.94,11.91C26.09,207.54,20.36,209,12.6,209Z"/></g><g id="ICONA"><path class="cls-4" d="M194.14,76.71a13.61,13.61,0,0,1-3.53,6.43A13.4,13.4,0,1,1,178.1,60.66L166.45,49a4.41,4.41,0,0,0-3.16-1.32A4.21,4.21,0,0,0,160.1,49L121.32,87.82A4.42,4.42,0,0,0,120,91a4.26,4.26,0,0,0,1.32,3.17L160.1,133a4.51,4.51,0,0,0,3.19,1.32,4.15,4.15,0,0,0,3.16-1.32l15.43-15.43,2,2a9.88,9.88,0,0,0,2.83,8.12,9.65,9.65,0,0,0,6.87,2.82,10.09,10.09,0,0,0,6.88-2.82,9.7,9.7,0,0,0,2.83-6.88,9.77,9.77,0,0,0-10.94-9.7l-2-2,14.9-14.91A4.46,4.46,0,0,0,206.57,91a4.33,4.33,0,0,0-1.32-3.17"/><path class="cls-5" d="M300.65,87.82,261.85,49a4.44,4.44,0,0,0-3.17-1.32A4.14,4.14,0,0,0,255.51,49L243.78,60.66a13.85,13.85,0,0,1,6.44,3.52,13.41,13.41,0,1,1-19,19,13.29,13.29,0,0,1-3.53-6.43l-11.1,11.11A4.47,4.47,0,0,0,215.3,91a4.32,4.32,0,0,0,1.33,3.17l14.9,14.91-2,2a9.79,9.79,0,1,0,8.38,8.54l2-2L255.33,133a4.45,4.45,0,0,0,3.17,1.33,4.2,4.2,0,0,0,3.18-1.33l38.79-38.79a4.41,4.41,0,0,0,1.32-3.18A4.47,4.47,0,0,0,300.65,87.82Z"/><path class="cls-6" d="M214.15,1.33a4.45,4.45,0,0,0-6.34,0L169.1,40.12a4.48,4.48,0,0,0,0,6.35L184.53,61.9l-2,2a9.79,9.79,0,1,0,8.55,8.56l2-2L208,85.34a4.45,4.45,0,0,0,6.34,0l14.9-14.89,2,2a9.75,9.75,0,0,0,2.82,8.11,9.79,9.79,0,1,0,5.73-16.67l-2-2,15.42-15.43a4.46,4.46,0,0,0,0-6.35"/></g></svg>