<?xml version="1.0" encoding="utf-8"?>
<!-- Generator: Adobe Illustrator 16.0.0, SVG Export Plug-In . SVG Version: 6.00 Build 0)  -->
<!DOCTYPE svg PUBLIC "-//W3C//DTD SVG 1.1//EN" "http://www.w3.org/Graphics/SVG/1.1/DTD/svg11.dtd">
<svg version="1.1" id="Layer_1" xmlns="http://www.w3.org/2000/svg" xmlns:xlink="http://www.w3.org/1999/xlink" x="0px" y="0px"
	 width="755.866px" height="138.083px" viewBox="0 0 755.866 138.083" enable-background="new 0 0 755.866 138.083"
	 xml:space="preserve">
<polygon fill-rule="evenodd" clip-rule="evenodd" fill="#70B2D7" points="167.499,52.339 111.665,136.089 223.328,136.089 "/>
<polygon fill-rule="evenodd" clip-rule="evenodd" fill="#70B2D7" points="69.792,31.407 0,136.088 104.688,136.088 122.133,109.918 
	"/>
<polygon fill-rule="evenodd" clip-rule="evenodd" fill="#70B2D7" points="153.541,62.809 111.664,0 83.75,41.872 125.622,104.683 
	"/>
<g>
	<path fill="#70B2D7" d="M302.197,136.065l-0.844-7.229c-6.048,6.222-12.602,9.247-23.859,9.247
		c-15.294,0-27.226-8.402-27.226-24.37c0-18.483,11.595-27.728,51.254-27.728v-8.403c0-8.907-5.547-13.608-17.643-13.608
		c-8.908,0-16.639,3.36-17.647,11.763l-14.787-3.363c1.008-14.955,16.466-22.35,33.775-22.35c23.025,0,31.427,7.225,31.427,27.558
		v58.483H302.197z M301.521,97.748c-28.905,0-36.129,5.044-36.129,14.956c0,9.077,6.048,12.771,16.972,12.771
		c11.931,0,19.157-5.543,19.157-14.788V97.748z"/>
	<rect x="335.442" y="25.32" fill="#70B2D7" width="14.956" height="110.745"/>
	<path fill="#70B2D7" d="M413.564,134.05c-5.208,3.355-9.915,4.032-15.293,4.032c-14.956,0-22.181-8.069-22.181-25.042V64.811
		h-14.455V52.04h14.455V37.418l10.755-12.098h3.864v26.72h20.502v12.771H390.71v47.893c0,6.555,2.858,11.262,9.916,11.262
		c3.191,0,4.876-0.507,8.569-1.848L413.564,134.05z"/>
	<path fill="#70B2D7" d="M425.226,25.32h14.955v15.628h-14.955V25.32z M425.226,52.04h14.955v84.025h-14.955V52.04z"/>
	<path fill="#70B2D7" d="M502.706,134.05c-5.209,3.355-9.911,4.032-15.289,4.032c-14.961,0-22.187-8.069-22.187-25.042V64.811
		h-14.449V52.04h14.449V37.418l10.756-12.098h3.867v26.72h20.498v12.771h-20.498v47.893c0,6.555,2.856,11.262,9.912,11.262
		c3.192,0,4.876-0.507,8.57-1.848L502.706,134.05z"/>
	<path fill="#70B2D7" d="M564.067,136.065v-9.577h-0.675c-4.533,6.385-12.096,11.595-22.519,11.595
		c-18.481,0-26.551-9.41-26.551-27.059V52.041h14.956v58.816c0,9.915,5.885,13.445,16.133,13.445
		c11.427,0,18.655-5.715,18.655-16.807V52.041h14.956v84.024H564.067z"/>
	<path fill="#70B2D7" d="M651.464,136.066v-11.261h-0.67c-5.045,8.4-12.771,13.277-23.864,13.277
		c-18.655,0-33.442-15.965-33.442-43.527c0-28.233,15.464-44.531,37.142-44.531c9.241,0,15.965,4.369,20.165,10.08h0.67V25.32
		h15.125v110.746H651.464z M652.14,93.714c0-14.453-5.045-29.742-21.511-29.742c-12.775,0-21.848,10.756-21.848,29.911
		c0,21.512,10.08,30.251,23.188,30.251C646.926,124.134,652.14,110.355,652.14,93.714"/>
	<path fill="#70B2D7" d="M682.933,94.054c0-26.888,12.94-44.031,36.467-44.031s36.467,17.143,36.467,44.031
		c0,27.389-12.94,44.028-36.467,44.028S682.933,121.443,682.933,94.054 M740.234,94.054c0-17.48-6.048-30.081-20.835-30.081
		c-14.792,0-20.84,12.601-20.84,30.081c0,17.811,6.048,29.741,20.84,29.741C734.187,123.795,740.234,111.865,740.234,94.054"/>
</g>
</svg>
